<svg id="Alyson" xmlns="http://www.w3.org/2000/svg" xmlns:xlink="http://www.w3.org/1999/xlink" width="40" height="40" viewBox="0 0 40 40">
  <defs>
    <clipPath id="clip-path">
      <rect id="Rectangle_7182" data-name="Rectangle 7182" width="40" height="40" fill="none"/>
    </clipPath>
  </defs>
  <g id="Group_12675" data-name="Group 12675">
    <g id="Group_12674" data-name="Group 12674" clip-path="url(#clip-path)">
      <path id="Path_17075" data-name="Path 17075" d="M20,0h0A20,20,0,1,1,0,20,20,20,0,0,1,20,0" transform="translate(0 0)" fill="#ffa919"/>
      <path id="Path_17076" data-name="Path 17076" d="M51.551,33.976A17.575,17.575,0,1,1,33.976,51.551,17.575,17.575,0,0,1,51.551,33.976" transform="translate(-31.552 -31.552)" fill="#f2f2f2"/>
      <path id="Path_17077" data-name="Path 17077" d="M78.05,61.5A15.613,15.613,0,1,1,61.436,76.04,15.613,15.613,0,0,1,78.05,61.5" transform="translate(-57.02 -57.076)" fill="#f2f2f2"/>
      <path id="Path_17078" data-name="Path 17078" d="M166.283,132.214c-.223-.13-2.961,1.9-3.356,4.077s.7,10.275.7,10.275l5.912,3.748,4.937,1.572,2.255-3.176.631-10.5c-.01.008-10.861-5.869-11.074-6" transform="translate(-151.222 -122.775)" fill="#f3c4b5" fill-rule="evenodd"/>
      <path id="Path_17079" data-name="Path 17079" d="M208.9,309.005a9.817,9.817,0,0,1,1.311-.247c.473-.054.948-.118,1.408-.213.144-.026.453-.155.592-.1.026.014-.11.295-.123.322a3.029,3.029,0,0,1-.665.764,1.515,1.515,0,0,1-2.523-.523" transform="translate(-193.993 -286.422)" fill="#fff" fill-rule="evenodd"/>
      <path id="Path_17080" data-name="Path 17080" d="M196.592,302.84c.06-.029.339.217.5.144.14-.066.206-.251.387-.34.1-.053.445.068.56.047.151-.016.353-.238.612-.237a22.728,22.728,0,0,0,2.292.039,1.3,1.3,0,0,0,.482-.121c.231-.111.257-.224.319-.145.085.11-.044.227-.165.276a2.637,2.637,0,0,1-.687.177,17.62,17.62,0,0,1-2.5.522,5.348,5.348,0,0,1-1.634-.133c-.2-.062-.3-.162-.16-.229" transform="translate(-182.503 -280.638)" fill="#be415b" fill-rule="evenodd"/>
      <path id="Path_17081" data-name="Path 17081" d="M204.549,305.758a7.2,7.2,0,0,0,.609.512,1.132,1.132,0,0,0,1.136.357c.569-.195,1.237-1.037,1.686-1.24.14-.066.624-.314.621-.294a3.176,3.176,0,0,0-.625.7c-.28.492-.853,1.63-1.894,1.627a1.87,1.87,0,0,1-1.426-1.076c-.137-.212-.234-.373-.357-.556-.022-.023.2-.009.249-.028" transform="translate(-189.721 -283.322)" fill="#be415b" fill-rule="evenodd"/>
      <path id="Path_17082" data-name="Path 17082" d="M264.486,299.7c-.008.079.209.109.344.257.112.121.168.337.244.318.122-.034-.008-.377-.161-.513-.109-.092-.4-.191-.426-.062" transform="translate(-245.614 -278.263)" fill="#be415b" fill-rule="evenodd"/>
      <path id="Path_17083" data-name="Path 17083" d="M196.356,308.4c.058.052-.02.1.013.293.016.158.074.234.023.262-.1.05-.145-.108-.185-.3s.052-.342.15-.26" transform="translate(-182.2 -286.378)" fill="#be415b" fill-rule="evenodd"/>
      <path id="Path_17084" data-name="Path 17084" d="M203.319,125.424c.328,2.75,1.727,4.328,4.671,5.3a31.9,31.9,0,0,1,3.379,2.107c.454.273-.651-2.54-1.165-3.22a19.015,19.015,0,0,0-3.917-4.053c-.771-.543-2.547-1.664-2.967-.139" transform="translate(-188.812 -115.761)" fill="#e9896e" fill-rule="evenodd"/>
      <path id="Path_17085" data-name="Path 17085" d="M259.473,344.487c.487-.018.839-.441,1.516-.86.205-.121.957-.918.929-.707a2.821,2.821,0,0,1-1.561,2.1c-.136.078-.4.077-.577.242-.054.061-.353-.4-.308-.776" transform="translate(-240.955 -318.42)" fill="#e9896e" fill-rule="evenodd"/>
      <path id="Path_17086" data-name="Path 17086" d="M326.73,239.158a3.182,3.182,0,0,0-.719.376.625.625,0,0,0-.182.711c.226.516.506.805.656-.294.071-.5.488-.671.434-.877" transform="translate(-302.54 -222.016)" fill="#e9896e" fill-rule="evenodd"/>
      <path id="Path_17087" data-name="Path 17087" d="M226.579,204.435c.3.088.313-.354,1.8-.652a6.826,6.826,0,0,1,1.938-.006,3.806,3.806,0,0,0-1.467-.416,3.136,3.136,0,0,0-1.564.321c-.519.264-.963.678-.705.753" transform="translate(-210.342 -188.846)" fill="#131834" fill-rule="evenodd"/>
      <path id="Path_17088" data-name="Path 17088" d="M158.154,210.592c-.181.139-.49-.347-1.646-.324a4.82,4.82,0,0,0-1.453.3c-.01,0,.069-.509.94-.668a2.952,2.952,0,0,1,1.429.088c.37.1.988.407.729.607" transform="translate(-143.991 -194.874)" fill="#131834" fill-rule="evenodd"/>
      <path id="Path_17089" data-name="Path 17089" d="M133.984,97.446a3.715,3.715,0,0,0-1.733,1.733,8.811,8.811,0,0,0-1.245,4.2c-.106,1.748.183,1.3.268,2.929a7.3,7.3,0,0,0,1.112,3.574c.7,1.242,2.272,4.1,4.7,3.5a8.352,8.352,0,0,0,1.519-.516c.01-.009.141,3.094.053,3.118a17.679,17.679,0,0,1-4.675.277,4.388,4.388,0,0,0-2.886,1.387,6.364,6.364,0,0,1-2.648-4.688c-.483-4.2,2.531-5.325,2.235-7.11s-2.133-3.024-2.2-5.381a4.469,4.469,0,0,1,3.666-4.827,7.394,7.394,0,0,1,1.962-.216s1.052-1.907,5.426-1.279c5.1.734,6.225,2.949,6.706,4.7.744,2.739.486,4.718,1.357,6.407,1.733,3.374,2.705,3.834,2.89,6.709.3,4.686-4.748,6.742-5.015,6.55a4.918,4.918,0,0,1-2.406-3.688c-.326-1.911-.409-7.335-.409-7.335a3.979,3.979,0,0,0,1.173-1.11c.342-.5.707-1.5.3-2.024a1.061,1.061,0,0,0-1.733.107,3.525,3.525,0,0,0-.53,1.016,5.766,5.766,0,0,1-.4-.624,5.382,5.382,0,0,0-.968-1.24c-1.355-1.228-2.718-1.463-4.371-2.99-1.961-1.829-2.151-3.178-2.151-3.178" transform="translate(-119.239 -87.313)" fill="#131834" fill-rule="evenodd"/>
    </g>
  </g>
  <g id="Group_12679" data-name="Group 12679">
    <g id="Group_12678" data-name="Group 12678" clip-path="url(#clip-path)">
      <path id="Path_17092" data-name="Path 17092" d="M324.922,240.506a.087.087,0,0,1-.047-.013.112.112,0,0,1-.052-.138.822.822,0,0,0,.063-.623c-.007-.048-.042-.08-.107-.123a.571.571,0,0,1-.187-.234.889.889,0,0,1,.316-.837c.248-.253.63-.479.848-.426a.107.107,0,0,1-.052.208,1.1,1.1,0,0,0-.642.372.711.711,0,0,0-.263.628c.016.049.055.081.116.133a.424.424,0,0,1,.176.243,1.056,1.056,0,0,1-.08.766.147.147,0,0,1-.089.043" transform="translate(-301.421 -221.115)" fill="#9b442c"/>
      <path id="Path_17093" data-name="Path 17093" d="M203.015,261.916l-.028,0a1.533,1.533,0,0,0-.3-.02c-.328,0-.771,0-.9-.475a1.109,1.109,0,0,1,.109-.629,4.783,4.783,0,0,0,.284-1.225.125.125,0,0,1,.25.017,4.762,4.762,0,0,1-.3,1.282,1.162,1.162,0,0,0-.109.475c.078.275.309.29.665.3a1.468,1.468,0,0,1,.355.024.129.129,0,0,1,.1.151.121.121,0,0,1-.123.107" transform="translate(-187.38 -240.937)" fill="#9b442c"/>
      <path id="Path_17094" data-name="Path 17094" d="M222.666,223.486h0a.842.842,0,0,1,.433-.681,4.623,4.623,0,0,1,1.64-.523,7.6,7.6,0,0,1,2.3-.109,1.184,1.184,0,0,1,.931.547,2.327,2.327,0,0,1-.018,1.631,3.284,3.284,0,0,1-.851,1.365,2.058,2.058,0,0,1-1.224.458,3.621,3.621,0,0,1-1.857-.368,2.7,2.7,0,0,1-1.016-.962,2.349,2.349,0,0,1-.34-1.357m.269.017h0a1.981,1.981,0,0,0,.319,1.182,2.3,2.3,0,0,0,.914.835,3.435,3.435,0,0,0,1.4.322,1.962,1.962,0,0,0,1.317-.39,2.805,2.805,0,0,0,.754-1.218,2.008,2.008,0,0,0,.051-1.387.61.61,0,0,0-.292-.261,2.3,2.3,0,0,0-.7-.157,8.225,8.225,0,0,0-1.887.131,5.422,5.422,0,0,0-1.34.359c-.325.161-.516.335-.532.585Z" transform="translate(-206.775 -206.282)" fill="#131834" fill-rule="evenodd"/>
      <path id="Path_17095" data-name="Path 17095" d="M296.03,243.341h-.019l-1.3-.173a.164.164,0,1,1,.041-.325l1.3.173a.176.176,0,0,1,.143.183.182.182,0,0,1-.165.143" transform="translate(-273.551 -225.514)" fill="#142045"/>
      <path id="Path_17096" data-name="Path 17096" d="M151.3,234.3h0a2.153,2.153,0,0,1-.068,1.161,2.1,2.1,0,0,1-.663.968,2.648,2.648,0,0,1-1.154.493,1.67,1.67,0,0,1-1.263-.247,2.91,2.91,0,0,1-.843-1.1,2.2,2.2,0,0,1-.231-1.375.9.9,0,0,1,.653-.582,5.205,5.205,0,0,1,1.8-.141,4.182,4.182,0,0,1,1.17.21.842.842,0,0,1,.6.61m-.267.058h0a.611.611,0,0,0-.438-.412,3.623,3.623,0,0,0-1.085-.173,6.08,6.08,0,0,0-1.455.081,1.492,1.492,0,0,0-.5.2.382.382,0,0,0-.163.228,1.874,1.874,0,0,0,.221,1.16,2.545,2.545,0,0,0,.739.96,1.354,1.354,0,0,0,1.008.191,2.192,2.192,0,0,0,1.009-.405,1.845,1.845,0,0,0,.579-.819,1.793,1.793,0,0,0,.082-1.011Z" transform="translate(-136.563 -216.801)" fill="#131834" fill-rule="evenodd"/>
      <path id="Path_17097" data-name="Path 17097" d="M203.759,243.5a.131.131,0,0,1-.258-.046.944.944,0,0,1,.194-.439.781.781,0,0,1,.442-.25.752.752,0,0,1,.326.011l.123.037a1.552,1.552,0,0,1,.214.121,1.408,1.408,0,0,1,.264.239.127.127,0,0,1-.151.2,3.913,3.913,0,0,0-.4-.133l-.139-.041a.647.647,0,0,0-.189-.022.457.457,0,0,0-.258.079.645.645,0,0,0-.17.24" transform="translate(-188.979 -225.433)" fill="#131834" fill-rule="evenodd"/>
      <path id="Path_17098" data-name="Path 17098" d="M237.669,235.047a1.78,1.78,0,0,1,.811-1.18,2.06,2.06,0,0,1,1.5-.15,3.52,3.52,0,0,0,1.144.047,1.5,1.5,0,0,1-.631.5,1.3,1.3,0,0,1-.575-.048,2.442,2.442,0,0,0-.833-.094,2.14,2.14,0,0,0-1.421.928" transform="translate(-220.711 -216.968)" fill="#003f88" fill-rule="evenodd"/>
      <path id="Path_17099" data-name="Path 17099" d="M248.912,235.929a.732.732,0,1,1,.628.822.732.732,0,0,1-.628-.822" transform="translate(-231.146 -218.505)" fill="#003f88"/>
      <path id="Path_17100" data-name="Path 17100" d="M167.027,243.565a.743.743,0,0,0-.289-.839,1.717,1.717,0,0,0-1.276-.143,2.606,2.606,0,0,1-.943.077,1.431,1.431,0,0,0,.6.474,1.045,1.045,0,0,0,.514-.058,1.139,1.139,0,0,1,.562-.093c.514.046.625.343.83.581" transform="translate(-152.78 -225.216)" fill="#003f88" fill-rule="evenodd"/>
      <path id="Path_17101" data-name="Path 17101" d="M184.782,245.037a.518.518,0,0,0-.62.524.642.642,0,0,0,.582.7l.03,0c.362,0,.522-.176.547-.548a.72.72,0,0,0-.539-.676" transform="translate(-171.02 -227.544)" fill="#003f88" fill-rule="evenodd"/>
      <path id="Path_17102" data-name="Path 17102" d="M172.656,384.26a4.849,4.849,0,0,0,1.8,2.1,2.967,2.967,0,0,0,2.971.258s-3.187,3.13-9.18,2.8c-5.371-.3-8.006-2.7-8.006-2.7a5.3,5.3,0,0,1,1.011-1.437,4.983,4.983,0,0,1,4.084-1.126,8.464,8.464,0,0,0,2.942-.169s.234.69,1.512.89a5.448,5.448,0,0,0,2.867-.611" transform="translate(-148.806 -356.583)" fill="#fea300" fill-rule="evenodd"/>
      <path id="Path_17103" data-name="Path 17103" d="M267.372,392.079a2.642,2.642,0,0,1-2.331-1.284.114.114,0,0,1,.04-.157l.016-.008a.114.114,0,0,1,.157.039.111.111,0,0,1,.008.016,2.4,2.4,0,0,0,2.394,1.122.124.124,0,0,1,.059.24,1.357,1.357,0,0,1-.343.031" transform="translate(-246.115 -362.743)" fill="#9f4831"/>
      <path id="Path_17104" data-name="Path 17104" d="M270.45,341.547a.106.106,0,0,1-.092-.067.108.108,0,0,1,.048-.141,5.733,5.733,0,0,0,1.49-1.1.51.51,0,0,1,.113-.1.1.1,0,0,1,.137.011l.007.009a.1.1,0,0,1-.011.137l-.009.007-.1.089a6.242,6.242,0,0,1-1.551,1.141c0,.01-.011.019-.03.017" transform="translate(-251.058 -315.846)" fill="#9f4831"/>
    </g>
  </g>
</svg>
